# xmcd
#
# Track frame offsets:
#	150
#	15222
#	26132
#	39342
#	53617
#	65062
#	77122
#	89095
#	103480
#	116140
#	129482
#	144737
#	161932
#
# Disc length: 2323 seconds
#
# Revision: 0
# Processed by: cddbd v1.5.2PL0 Copyright (c) Steve Scherf et al.
# Submitted via: EasyCDDAExtractor 16.0.6.1
#
DISCID=b909110d
DTITLE=Συλλογικός δίσκος - Μουσικές διαδρομές
DYEAR=1997
DGENRE=Λαϊκή
TTITLE0=Περπινιάδης Βαγγέλης - Μη μ' αφήνεις μόνο μου [Β. Περπινιάδη]
TTITLE1=Ζαγοραίος Σπύρος - Προσευχή [Σπ. Ζαγοραίου-Δ. Γκούτη]
TTITLE2=Περπινιάδης Βαγγέλης - Και στον γκρεμό να πέσω [Β. Περπινιάδη-Δ. Γκούτ
TTITLE2=η]
TTITLE3=Κερμανίδης Πόλυς - Οι μάγκες [Α. Βουτσινού-Π. Κερμανίδη]
TTITLE4=Περπινιάδης Βαγγέλης - Αράξτε μάγκες, να περάσω [Στ. Γονίδη]
TTITLE5=Περπινιάδης Βαγγέλης - Έβαλα μυαλό [Ν. Δαλέζιου]
TTITLE6=Γιουλάκης Νίκος - Μαννίτσα μου τι έχω πάθει [Ν. Γιουλάκη]
TTITLE7=Γιαννακάκη Έλενα - Τώρα τέτοια θα λέμε [Κ. Σούκα-Λ. Τσώλη]
TTITLE8=Ζαγοραίος Σπύρος - Μπαρμπα Θωμάς [Γ. Μητσάκη]
TTITLE9=Λεγάκη Ελένη - Φτωχοκαλυβάκι μου [Σ. Βαρτάνη]
TTITLE10=Γιαννακάκη Έλενα - Ό,τι είχα τής τά 'δωσα [Α. Σπυρόπουλου-Λ. Ζέρβα]
TTITLE11=Γονίδης Σταμάτης - Τού έρωτα οι νόμοι [Α. Περιστεράκη-Α. Κονιτόπουλου
TTITLE11=]
TTITLE12=Χατζηδάκη Άννα - Σαν το ψαράκι θα μπλεχτείς [Στ. Χατζηδάκη]
EXTD=
EXTT0=
EXTT1=
EXTT2=
EXTT3=
EXTT4=
EXTT5=
EXTT6=
EXTT7=
EXTT8=
EXTT9=
EXTT10=
EXTT11=
EXTT12=
PLAYORDER=
